<mxfile host="app.diagrams.net" modified="2021-05-27T07:52:14.794Z" agent="5.0 (Windows NT 10.0; Win64; x64) AppleWebKit/537.36 (KHTML, like Gecko) Chrome/91.0.4472.77 Safari/537.36" etag="thGXXQm6eR7IA5rIHGOy" version="14.7.2" type="github">
  <diagram id="sl1sLAIorJPmM6Glef_p" name="Page-1">
    <mxGraphModel dx="1422" dy="762" grid="1" gridSize="10" guides="1" tooltips="1" connect="1" arrows="1" fold="1" page="1" pageScale="1" pageWidth="827" pageHeight="1169" math="0" shadow="0">
      <root>
        <mxCell id="0" />
        <mxCell id="1" parent="0" />
        <mxCell id="H-2fJrms_N8roYaYfMnV-32" value="Zookeeper" style="shape=table;startSize=30;container=1;collapsible=1;childLayout=tableLayout;fixedRows=1;rowLines=0;fontStyle=1;align=center;resizeLast=1;" vertex="1" parent="1">
          <mxGeometry x="400" y="60" width="210" height="160" as="geometry" />
        </mxCell>
        <mxCell id="H-2fJrms_N8roYaYfMnV-33" value="" style="shape=partialRectangle;collapsible=0;dropTarget=0;pointerEvents=0;fillColor=none;top=0;left=0;bottom=1;right=0;points=[[0,0.5],[1,0.5]];portConstraint=eastwest;" vertex="1" parent="H-2fJrms_N8roYaYfMnV-32">
          <mxGeometry y="30" width="210" height="30" as="geometry" />
        </mxCell>
        <mxCell id="H-2fJrms_N8roYaYfMnV-34" value="PK" style="shape=partialRectangle;connectable=0;fillColor=none;top=0;left=0;bottom=0;right=0;fontStyle=1;overflow=hidden;" vertex="1" parent="H-2fJrms_N8roYaYfMnV-33">
          <mxGeometry width="30" height="30" as="geometry" />
        </mxCell>
        <mxCell id="H-2fJrms_N8roYaYfMnV-35" value="zookeeper_id" style="shape=partialRectangle;connectable=0;fillColor=none;top=0;left=0;bottom=0;right=0;align=left;spacingLeft=6;fontStyle=5;overflow=hidden;" vertex="1" parent="H-2fJrms_N8roYaYfMnV-33">
          <mxGeometry x="30" width="180" height="30" as="geometry" />
        </mxCell>
        <mxCell id="H-2fJrms_N8roYaYfMnV-36" value="" style="shape=partialRectangle;collapsible=0;dropTarget=0;pointerEvents=0;fillColor=none;top=0;left=0;bottom=0;right=0;points=[[0,0.5],[1,0.5]];portConstraint=eastwest;" vertex="1" parent="H-2fJrms_N8roYaYfMnV-32">
          <mxGeometry y="60" width="210" height="30" as="geometry" />
        </mxCell>
        <mxCell id="H-2fJrms_N8roYaYfMnV-37" value="R" style="shape=partialRectangle;connectable=0;fillColor=none;top=0;left=0;bottom=0;right=0;editable=1;overflow=hidden;" vertex="1" parent="H-2fJrms_N8roYaYfMnV-36">
          <mxGeometry width="30" height="30" as="geometry" />
        </mxCell>
        <mxCell id="H-2fJrms_N8roYaYfMnV-38" value="zookeeper_name" style="shape=partialRectangle;connectable=0;fillColor=none;top=0;left=0;bottom=0;right=0;align=left;spacingLeft=6;overflow=hidden;" vertex="1" parent="H-2fJrms_N8roYaYfMnV-36">
          <mxGeometry x="30" width="180" height="30" as="geometry" />
        </mxCell>
        <mxCell id="H-2fJrms_N8roYaYfMnV-39" value="" style="shape=partialRectangle;collapsible=0;dropTarget=0;pointerEvents=0;fillColor=none;top=0;left=0;bottom=0;right=0;points=[[0,0.5],[1,0.5]];portConstraint=eastwest;" vertex="1" parent="H-2fJrms_N8roYaYfMnV-32">
          <mxGeometry y="90" width="210" height="30" as="geometry" />
        </mxCell>
        <mxCell id="H-2fJrms_N8roYaYfMnV-40" value="R" style="shape=partialRectangle;connectable=0;fillColor=none;top=0;left=0;bottom=0;right=0;editable=1;overflow=hidden;" vertex="1" parent="H-2fJrms_N8roYaYfMnV-39">
          <mxGeometry width="30" height="30" as="geometry" />
        </mxCell>
        <mxCell id="H-2fJrms_N8roYaYfMnV-41" value="zookeeper_surname" style="shape=partialRectangle;connectable=0;fillColor=none;top=0;left=0;bottom=0;right=0;align=left;spacingLeft=6;overflow=hidden;" vertex="1" parent="H-2fJrms_N8roYaYfMnV-39">
          <mxGeometry x="30" width="180" height="30" as="geometry" />
        </mxCell>
        <mxCell id="H-2fJrms_N8roYaYfMnV-42" value="" style="shape=partialRectangle;collapsible=0;dropTarget=0;pointerEvents=0;fillColor=none;top=0;left=0;bottom=0;right=0;points=[[0,0.5],[1,0.5]];portConstraint=eastwest;" vertex="1" parent="H-2fJrms_N8roYaYfMnV-32">
          <mxGeometry y="120" width="210" height="30" as="geometry" />
        </mxCell>
        <mxCell id="H-2fJrms_N8roYaYfMnV-43" value="R" style="shape=partialRectangle;connectable=0;fillColor=none;top=0;left=0;bottom=0;right=0;editable=1;overflow=hidden;" vertex="1" parent="H-2fJrms_N8roYaYfMnV-42">
          <mxGeometry width="30" height="30" as="geometry" />
        </mxCell>
        <mxCell id="H-2fJrms_N8roYaYfMnV-44" value="zookeeper_phone_number" style="shape=partialRectangle;connectable=0;fillColor=none;top=0;left=0;bottom=0;right=0;align=left;spacingLeft=6;overflow=hidden;" vertex="1" parent="H-2fJrms_N8roYaYfMnV-42">
          <mxGeometry x="30" width="180" height="30" as="geometry" />
        </mxCell>
        <mxCell id="H-2fJrms_N8roYaYfMnV-55" value="Category" style="shape=table;startSize=30;container=1;collapsible=1;childLayout=tableLayout;fixedRows=1;rowLines=0;fontStyle=1;align=center;resizeLast=1;" vertex="1" parent="1">
          <mxGeometry x="130" y="430" width="180" height="90" as="geometry" />
        </mxCell>
        <mxCell id="H-2fJrms_N8roYaYfMnV-56" value="" style="shape=partialRectangle;collapsible=0;dropTarget=0;pointerEvents=0;fillColor=none;top=0;left=0;bottom=1;right=0;points=[[0,0.5],[1,0.5]];portConstraint=eastwest;" vertex="1" parent="H-2fJrms_N8roYaYfMnV-55">
          <mxGeometry y="30" width="180" height="30" as="geometry" />
        </mxCell>
        <mxCell id="H-2fJrms_N8roYaYfMnV-57" value="PK" style="shape=partialRectangle;connectable=0;fillColor=none;top=0;left=0;bottom=0;right=0;fontStyle=1;overflow=hidden;" vertex="1" parent="H-2fJrms_N8roYaYfMnV-56">
          <mxGeometry width="30" height="30" as="geometry" />
        </mxCell>
        <mxCell id="H-2fJrms_N8roYaYfMnV-58" value="category_id" style="shape=partialRectangle;connectable=0;fillColor=none;top=0;left=0;bottom=0;right=0;align=left;spacingLeft=6;fontStyle=5;overflow=hidden;" vertex="1" parent="H-2fJrms_N8roYaYfMnV-56">
          <mxGeometry x="30" width="150" height="30" as="geometry" />
        </mxCell>
        <mxCell id="H-2fJrms_N8roYaYfMnV-59" value="" style="shape=partialRectangle;collapsible=0;dropTarget=0;pointerEvents=0;fillColor=none;top=0;left=0;bottom=0;right=0;points=[[0,0.5],[1,0.5]];portConstraint=eastwest;" vertex="1" parent="H-2fJrms_N8roYaYfMnV-55">
          <mxGeometry y="60" width="180" height="30" as="geometry" />
        </mxCell>
        <mxCell id="H-2fJrms_N8roYaYfMnV-60" value="R" style="shape=partialRectangle;connectable=0;fillColor=none;top=0;left=0;bottom=0;right=0;editable=1;overflow=hidden;" vertex="1" parent="H-2fJrms_N8roYaYfMnV-59">
          <mxGeometry width="30" height="30" as="geometry" />
        </mxCell>
        <mxCell id="H-2fJrms_N8roYaYfMnV-61" value="category_name" style="shape=partialRectangle;connectable=0;fillColor=none;top=0;left=0;bottom=0;right=0;align=left;spacingLeft=6;overflow=hidden;" vertex="1" parent="H-2fJrms_N8roYaYfMnV-59">
          <mxGeometry x="30" width="150" height="30" as="geometry" />
        </mxCell>
        <mxCell id="H-2fJrms_N8roYaYfMnV-68" value="" style="group" vertex="1" connectable="0" parent="1">
          <mxGeometry x="590" y="290" width="180" height="160" as="geometry" />
        </mxCell>
        <mxCell id="H-2fJrms_N8roYaYfMnV-19" value="Food" style="shape=table;startSize=30;container=1;collapsible=1;childLayout=tableLayout;fixedRows=1;rowLines=0;fontStyle=1;align=center;resizeLast=1;" vertex="1" parent="H-2fJrms_N8roYaYfMnV-68">
          <mxGeometry width="180" height="160" as="geometry" />
        </mxCell>
        <mxCell id="H-2fJrms_N8roYaYfMnV-20" value="" style="shape=partialRectangle;collapsible=0;dropTarget=0;pointerEvents=0;fillColor=none;top=0;left=0;bottom=1;right=0;points=[[0,0.5],[1,0.5]];portConstraint=eastwest;" vertex="1" parent="H-2fJrms_N8roYaYfMnV-19">
          <mxGeometry y="30" width="180" height="30" as="geometry" />
        </mxCell>
        <mxCell id="H-2fJrms_N8roYaYfMnV-21" value="PK" style="shape=partialRectangle;connectable=0;fillColor=none;top=0;left=0;bottom=0;right=0;fontStyle=1;overflow=hidden;" vertex="1" parent="H-2fJrms_N8roYaYfMnV-20">
          <mxGeometry width="30" height="30" as="geometry" />
        </mxCell>
        <mxCell id="H-2fJrms_N8roYaYfMnV-22" value="food_id" style="shape=partialRectangle;connectable=0;fillColor=none;top=0;left=0;bottom=0;right=0;align=left;spacingLeft=6;fontStyle=5;overflow=hidden;" vertex="1" parent="H-2fJrms_N8roYaYfMnV-20">
          <mxGeometry x="30" width="150" height="30" as="geometry" />
        </mxCell>
        <mxCell id="H-2fJrms_N8roYaYfMnV-23" value="" style="shape=partialRectangle;collapsible=0;dropTarget=0;pointerEvents=0;fillColor=none;top=0;left=0;bottom=0;right=0;points=[[0,0.5],[1,0.5]];portConstraint=eastwest;" vertex="1" parent="H-2fJrms_N8roYaYfMnV-19">
          <mxGeometry y="60" width="180" height="30" as="geometry" />
        </mxCell>
        <mxCell id="H-2fJrms_N8roYaYfMnV-24" value="R" style="shape=partialRectangle;connectable=0;fillColor=none;top=0;left=0;bottom=0;right=0;editable=1;overflow=hidden;" vertex="1" parent="H-2fJrms_N8roYaYfMnV-23">
          <mxGeometry width="30" height="30" as="geometry" />
        </mxCell>
        <mxCell id="H-2fJrms_N8roYaYfMnV-25" value="food_name" style="shape=partialRectangle;connectable=0;fillColor=none;top=0;left=0;bottom=0;right=0;align=left;spacingLeft=6;overflow=hidden;" vertex="1" parent="H-2fJrms_N8roYaYfMnV-23">
          <mxGeometry x="30" width="150" height="30" as="geometry" />
        </mxCell>
        <mxCell id="H-2fJrms_N8roYaYfMnV-26" value="" style="shape=partialRectangle;collapsible=0;dropTarget=0;pointerEvents=0;fillColor=none;top=0;left=0;bottom=0;right=0;points=[[0,0.5],[1,0.5]];portConstraint=eastwest;" vertex="1" parent="H-2fJrms_N8roYaYfMnV-19">
          <mxGeometry y="90" width="180" height="30" as="geometry" />
        </mxCell>
        <mxCell id="H-2fJrms_N8roYaYfMnV-27" value="" style="shape=partialRectangle;connectable=0;fillColor=none;top=0;left=0;bottom=0;right=0;editable=1;overflow=hidden;" vertex="1" parent="H-2fJrms_N8roYaYfMnV-26">
          <mxGeometry width="30" height="30" as="geometry" />
        </mxCell>
        <mxCell id="H-2fJrms_N8roYaYfMnV-28" value="food_price" style="shape=partialRectangle;connectable=0;fillColor=none;top=0;left=0;bottom=0;right=0;align=left;spacingLeft=6;overflow=hidden;" vertex="1" parent="H-2fJrms_N8roYaYfMnV-26">
          <mxGeometry x="30" width="150" height="30" as="geometry" />
        </mxCell>
        <mxCell id="H-2fJrms_N8roYaYfMnV-29" value="" style="shape=partialRectangle;collapsible=0;dropTarget=0;pointerEvents=0;fillColor=none;top=0;left=0;bottom=0;right=0;points=[[0,0.5],[1,0.5]];portConstraint=eastwest;" vertex="1" parent="H-2fJrms_N8roYaYfMnV-19">
          <mxGeometry y="120" width="180" height="30" as="geometry" />
        </mxCell>
        <mxCell id="H-2fJrms_N8roYaYfMnV-30" value="" style="shape=partialRectangle;connectable=0;fillColor=none;top=0;left=0;bottom=0;right=0;editable=1;overflow=hidden;" vertex="1" parent="H-2fJrms_N8roYaYfMnV-29">
          <mxGeometry width="30" height="30" as="geometry" />
        </mxCell>
        <mxCell id="H-2fJrms_N8roYaYfMnV-31" value="food_storage" style="shape=partialRectangle;connectable=0;fillColor=none;top=0;left=0;bottom=0;right=0;align=left;spacingLeft=6;overflow=hidden;" vertex="1" parent="H-2fJrms_N8roYaYfMnV-29">
          <mxGeometry x="30" width="150" height="30" as="geometry" />
        </mxCell>
        <mxCell id="H-2fJrms_N8roYaYfMnV-53" value="R" style="shape=partialRectangle;connectable=0;fillColor=none;top=0;left=0;bottom=0;right=0;editable=1;overflow=hidden;" vertex="1" parent="H-2fJrms_N8roYaYfMnV-68">
          <mxGeometry y="90" width="30" height="30" as="geometry" />
        </mxCell>
        <mxCell id="H-2fJrms_N8roYaYfMnV-54" value="R" style="shape=partialRectangle;connectable=0;fillColor=none;top=0;left=0;bottom=0;right=0;editable=1;overflow=hidden;" vertex="1" parent="H-2fJrms_N8roYaYfMnV-68">
          <mxGeometry y="120" width="30" height="30" as="geometry" />
        </mxCell>
        <mxCell id="H-2fJrms_N8roYaYfMnV-69" value="" style="group" vertex="1" connectable="0" parent="1">
          <mxGeometry x="70" y="80" width="180" height="210" as="geometry" />
        </mxCell>
        <mxCell id="H-2fJrms_N8roYaYfMnV-6" value="Animals" style="shape=table;startSize=30;container=1;collapsible=1;childLayout=tableLayout;fixedRows=1;rowLines=0;fontStyle=1;align=center;resizeLast=1;" vertex="1" parent="H-2fJrms_N8roYaYfMnV-69">
          <mxGeometry width="180" height="210" as="geometry" />
        </mxCell>
        <mxCell id="H-2fJrms_N8roYaYfMnV-7" value="" style="shape=partialRectangle;collapsible=0;dropTarget=0;pointerEvents=0;fillColor=none;top=0;left=0;bottom=1;right=0;points=[[0,0.5],[1,0.5]];portConstraint=eastwest;" vertex="1" parent="H-2fJrms_N8roYaYfMnV-6">
          <mxGeometry y="30" width="180" height="30" as="geometry" />
        </mxCell>
        <mxCell id="H-2fJrms_N8roYaYfMnV-8" value="PK" style="shape=partialRectangle;connectable=0;fillColor=none;top=0;left=0;bottom=0;right=0;fontStyle=1;overflow=hidden;" vertex="1" parent="H-2fJrms_N8roYaYfMnV-7">
          <mxGeometry width="30" height="30" as="geometry" />
        </mxCell>
        <mxCell id="H-2fJrms_N8roYaYfMnV-9" value="animal_id" style="shape=partialRectangle;connectable=0;fillColor=none;top=0;left=0;bottom=0;right=0;align=left;spacingLeft=6;fontStyle=5;overflow=hidden;" vertex="1" parent="H-2fJrms_N8roYaYfMnV-7">
          <mxGeometry x="30" width="150" height="30" as="geometry" />
        </mxCell>
        <mxCell id="H-2fJrms_N8roYaYfMnV-10" value="" style="shape=partialRectangle;collapsible=0;dropTarget=0;pointerEvents=0;fillColor=none;top=0;left=0;bottom=0;right=0;points=[[0,0.5],[1,0.5]];portConstraint=eastwest;" vertex="1" parent="H-2fJrms_N8roYaYfMnV-6">
          <mxGeometry y="60" width="180" height="30" as="geometry" />
        </mxCell>
        <mxCell id="H-2fJrms_N8roYaYfMnV-11" value="R" style="shape=partialRectangle;connectable=0;fillColor=none;top=0;left=0;bottom=0;right=0;editable=1;overflow=hidden;" vertex="1" parent="H-2fJrms_N8roYaYfMnV-10">
          <mxGeometry width="30" height="30" as="geometry" />
        </mxCell>
        <mxCell id="H-2fJrms_N8roYaYfMnV-12" value="animal_name" style="shape=partialRectangle;connectable=0;fillColor=none;top=0;left=0;bottom=0;right=0;align=left;spacingLeft=6;overflow=hidden;" vertex="1" parent="H-2fJrms_N8roYaYfMnV-10">
          <mxGeometry x="30" width="150" height="30" as="geometry" />
        </mxCell>
        <mxCell id="H-2fJrms_N8roYaYfMnV-13" value="" style="shape=partialRectangle;collapsible=0;dropTarget=0;pointerEvents=0;fillColor=none;top=0;left=0;bottom=0;right=0;points=[[0,0.5],[1,0.5]];portConstraint=eastwest;" vertex="1" parent="H-2fJrms_N8roYaYfMnV-6">
          <mxGeometry y="90" width="180" height="30" as="geometry" />
        </mxCell>
        <mxCell id="H-2fJrms_N8roYaYfMnV-14" value="R/FK" style="shape=partialRectangle;connectable=0;fillColor=none;top=0;left=0;bottom=0;right=0;editable=1;overflow=hidden;" vertex="1" parent="H-2fJrms_N8roYaYfMnV-13">
          <mxGeometry width="30" height="30" as="geometry" />
        </mxCell>
        <mxCell id="H-2fJrms_N8roYaYfMnV-15" value="animal_category_id" style="shape=partialRectangle;connectable=0;fillColor=none;top=0;left=0;bottom=0;right=0;align=left;spacingLeft=6;overflow=hidden;" vertex="1" parent="H-2fJrms_N8roYaYfMnV-13">
          <mxGeometry x="30" width="150" height="30" as="geometry" />
        </mxCell>
        <mxCell id="H-2fJrms_N8roYaYfMnV-16" value="" style="shape=partialRectangle;collapsible=0;dropTarget=0;pointerEvents=0;fillColor=none;top=0;left=0;bottom=0;right=0;points=[[0,0.5],[1,0.5]];portConstraint=eastwest;" vertex="1" parent="H-2fJrms_N8roYaYfMnV-6">
          <mxGeometry y="120" width="180" height="30" as="geometry" />
        </mxCell>
        <mxCell id="H-2fJrms_N8roYaYfMnV-17" value="R/FK" style="shape=partialRectangle;connectable=0;fillColor=none;top=0;left=0;bottom=0;right=0;editable=1;overflow=hidden;" vertex="1" parent="H-2fJrms_N8roYaYfMnV-16">
          <mxGeometry width="30" height="30" as="geometry" />
        </mxCell>
        <mxCell id="H-2fJrms_N8roYaYfMnV-18" value="animal_zookeeper_id" style="shape=partialRectangle;connectable=0;fillColor=none;top=0;left=0;bottom=0;right=0;align=left;spacingLeft=6;overflow=hidden;" vertex="1" parent="H-2fJrms_N8roYaYfMnV-16">
          <mxGeometry x="30" width="150" height="30" as="geometry" />
        </mxCell>
        <mxCell id="H-2fJrms_N8roYaYfMnV-47" value="animal_food_id" style="shape=partialRectangle;connectable=0;fillColor=none;top=0;left=0;bottom=0;right=0;align=left;spacingLeft=6;overflow=hidden;" vertex="1" parent="H-2fJrms_N8roYaYfMnV-69">
          <mxGeometry x="30" y="150" width="150" height="30" as="geometry" />
        </mxCell>
        <mxCell id="H-2fJrms_N8roYaYfMnV-49" value="animal_quantity" style="shape=partialRectangle;connectable=0;fillColor=none;top=0;left=0;bottom=0;right=0;align=left;spacingLeft=6;overflow=hidden;" vertex="1" parent="H-2fJrms_N8roYaYfMnV-69">
          <mxGeometry x="30" y="180" width="150" height="30" as="geometry" />
        </mxCell>
        <mxCell id="H-2fJrms_N8roYaYfMnV-51" value="R/FK" style="shape=partialRectangle;connectable=0;fillColor=none;top=0;left=0;bottom=0;right=0;editable=1;overflow=hidden;" vertex="1" parent="H-2fJrms_N8roYaYfMnV-69">
          <mxGeometry y="150" width="30" height="30" as="geometry" />
        </mxCell>
        <mxCell id="H-2fJrms_N8roYaYfMnV-52" value="R" style="shape=partialRectangle;connectable=0;fillColor=none;top=0;left=0;bottom=0;right=0;editable=1;overflow=hidden;" vertex="1" parent="H-2fJrms_N8roYaYfMnV-69">
          <mxGeometry y="180" width="30" height="30" as="geometry" />
        </mxCell>
      </root>
    </mxGraphModel>
  </diagram>
</mxfile>
